<svg xmlns="http://www.w3.org/2000/svg" viewBox="0 0 1243.83 216.09"><defs><style>.cls-1{fill:#fff;}.cls-2{fill:#4ecdcb;}</style></defs><title>prospexa_typeface_modified_dark</title><g id="Layer_2" data-name="Layer 2"><g id="Layer_1-2" data-name="Layer 1"><path class="cls-1" d="M130.87,22.52a76.51,76.51,0,0,1,0,108.44,75.87,75.87,0,0,1-54.36,22.43,74.06,74.06,0,0,1-27-5,80.24,80.24,0,0,1-23.58-14.24v82H0V.09H25.89V19.36A80.24,80.24,0,0,1,49.47,5.12a74.06,74.06,0,0,1,27-5,75.87,75.87,0,0,1,54.36,22.43Zm-54.36,105a49,49,0,0,0,19.84-4,51.74,51.74,0,0,0,27-27,49,49,0,0,0,4-19.84,48.33,48.33,0,0,0-4-19.56,51.74,51.74,0,0,0-27-27,49,49,0,0,0-19.84-4A48.29,48.29,0,0,0,57,30a51.74,51.74,0,0,0-27,27,48.33,48.33,0,0,0-4,19.56,49,49,0,0,0,4,19.84,51.74,51.74,0,0,0,27,27A48.29,48.29,0,0,0,76.51,127.5Z"/><path class="cls-1" d="M240.45.09a75.19,75.19,0,0,1,34.8,6.61L264.89,30.29a49.66,49.66,0,0,0-23-4.31,53.87,53.87,0,0,0-23.29,6.9,49.25,49.25,0,0,0-18.41,18.69,49.88,49.88,0,0,0-6.61,24.74v77.08H167.68V.09h25.89V19.36a53.15,53.15,0,0,1,12.08-8.63A73.68,73.68,0,0,1,240.45.09Z"/><path class="cls-1" d="M344.56,153.39a75.38,75.38,0,0,1-29.33-5.75,76.51,76.51,0,0,1-47.17-71,75.23,75.23,0,0,1,22.43-54.08A76.33,76.33,0,0,1,315.23,5.84,75.56,75.56,0,0,1,344.56.09,76.64,76.64,0,0,1,374,5.84,76.08,76.08,0,0,1,421.36,76.6a76.67,76.67,0,0,1-5.75,29.48,76.41,76.41,0,0,1-71.05,47.31Zm0-127.41A48.28,48.28,0,0,0,325,30a51.74,51.74,0,0,0-27,27,48.17,48.17,0,0,0-4,19.56,48.84,48.84,0,0,0,4,19.84,51.74,51.74,0,0,0,27,27,48.28,48.28,0,0,0,19.55,4,49.05,49.05,0,0,0,19.85-4,51.67,51.67,0,0,0,27-27,48.84,48.84,0,0,0,4-19.84,48.17,48.17,0,0,0-4-19.56,51.67,51.67,0,0,0-27-27A49.05,49.05,0,0,0,344.56,26Z"/><path class="cls-1" d="M490.38,153.39a71,71,0,0,1-21.14-3.16A59.55,59.55,0,0,1,451,141,42.71,42.71,0,0,1,438,126.35a37.71,37.71,0,0,1-5.18-19.27h25.89a12.38,12.38,0,0,0,2.73,8.2,30.77,30.77,0,0,0,5,5q9.78,7.2,23.87,7.19t23.88-7.19a30.77,30.77,0,0,0,5-5,12.43,12.43,0,0,0,2.73-8.2,15.06,15.06,0,0,0-6.61-12.65,44.67,44.67,0,0,0-9.21-4.75q-6-2.45-16.39-3h-.29q-19.84-1.43-34.23-12.08-16.11-12.64-16.1-31.06a37.82,37.82,0,0,1,4.17-17.4,42.23,42.23,0,0,1,11.93-14.24A52.72,52.72,0,0,1,471.4,3.11a61.18,61.18,0,0,1,38,0,52.55,52.55,0,0,1,16.1,8.77,42.15,42.15,0,0,1,11.94,14.24,37.82,37.82,0,0,1,4.17,17.4H515.69q0-7.19-7.47-12.37a33.35,33.35,0,0,0-35.67,0q-7.49,5.18-7.48,12.37,0,6.61,7.48,11.65t18.7,5.61q24.44,1.44,40,12.94a44.37,44.37,0,0,1,12.36,14.81,40.3,40.3,0,0,1,4.32,18.55,37.71,37.71,0,0,1-5.18,19.27A47.3,47.3,0,0,1,529.79,141a59.55,59.55,0,0,1-18.26,9.21A71,71,0,0,1,490.38,153.39Z"/><path class="cls-1" d="M694.59,22.52a76.48,76.48,0,0,1,0,108.44,75.87,75.87,0,0,1-54.36,22.43,74.05,74.05,0,0,1-27-5,80.29,80.29,0,0,1-23.59-14.24v82H563.73V.09h25.88V19.36A80.29,80.29,0,0,1,613.2,5.12a74.05,74.05,0,0,1,27-5,76.64,76.64,0,0,1,29.48,5.75A75.85,75.85,0,0,1,694.59,22.52Zm-54.36,105a49.08,49.08,0,0,0,19.85-4,51.67,51.67,0,0,0,27-27,48.84,48.84,0,0,0,4-19.84,48.17,48.17,0,0,0-4-19.56,51.67,51.67,0,0,0-27-27,49.08,49.08,0,0,0-19.85-4,48.28,48.28,0,0,0-19.55,4,51.74,51.74,0,0,0-27,27,48.17,48.17,0,0,0-4,19.56,48.84,48.84,0,0,0,4,19.84,51.74,51.74,0,0,0,27,27A48.28,48.28,0,0,0,640.23,127.5Z"/><path class="cls-1" d="M884.71,89.54H759a45.32,45.32,0,0,0,6.76,15.24A52.91,52.91,0,0,0,777,116.72a52.24,52.24,0,0,0,14.38,7.91,47.9,47.9,0,0,0,16.53,2.87,49.84,49.84,0,0,0,23.59-5.75A51.78,51.78,0,0,0,849,106.51l21,15.24a76.34,76.34,0,0,1-26.46,23,76.89,76.89,0,0,1-106.42-38.68,76.49,76.49,0,0,1-5.75-29.48,75.23,75.23,0,0,1,22.43-54.08A76.33,76.33,0,0,1,778.58,5.84,75.56,75.56,0,0,1,807.91.09a77.07,77.07,0,0,1,71,47.17,75.4,75.4,0,0,1,5.76,29.34ZM857.1,63.65a53.27,53.27,0,0,0-6.91-14.95,50.36,50.36,0,0,0-11.07-11.94,52.65,52.65,0,0,0-14.38-7.91A49.1,49.1,0,0,0,807.91,26a48.14,48.14,0,0,0-16.53,2.87,52.51,52.51,0,0,0-25.6,19.85A45.68,45.68,0,0,0,759,63.65Z"/><circle class="cls-2" cx="1224.57" cy="134.05" r="19.25"/><path class="cls-1" d="M1173.19,0V153.3H1147.3V134a80,80,0,0,1-23.58,14.24,77.24,77.24,0,0,1-56.66-.72,76.51,76.51,0,0,1-47.17-71,75.23,75.23,0,0,1,22.43-54.08,76.33,76.33,0,0,1,24.74-16.68A77.24,77.24,0,0,1,1123.72,5a80.45,80.45,0,0,1,23.58,14.24V0Zm-76.8,127.41a48.88,48.88,0,0,0,19.85-4,51.74,51.74,0,0,0,27-27,49,49,0,0,0,4-19.84,48.33,48.33,0,0,0-4-19.56,51.74,51.74,0,0,0-27-27,49.05,49.05,0,0,0-19.85-4,48.28,48.28,0,0,0-19.55,4,51.74,51.74,0,0,0-27,27,48.17,48.17,0,0,0-4,19.56,48.84,48.84,0,0,0,4,19.84,51.74,51.74,0,0,0,27,27A48.11,48.11,0,0,0,1096.39,127.41Z"/><polygon class="cls-2" points="968.66 70.94 1019.02 0 987.1 0 952.8 48.84 968.66 70.94"/><polygon class="cls-1" points="926.03 82.08 876.94 153.3 908.87 153.3 942.14 104.51 926.03 82.08"/><polygon class="cls-1" points="963.81 76.5 945.99 51.69 946.04 51.65 908.87 0 876.94 0 931.88 76.51 931.88 76.51 949.33 100.8 987.1 153.3 1019.02 153.3 963.8 76.51 963.81 76.5"/></g></g></svg>