<?xml version="1.0" standalone="no"?>
<!DOCTYPE svg PUBLIC "-//W3C//DTD SVG 20010904//EN"
 "http://www.w3.org/TR/2001/REC-SVG-20010904/DTD/svg10.dtd">
<svg version="1.0" xmlns="http://www.w3.org/2000/svg"
 width="2602.000000pt" height="2602.000000pt" viewBox="0 0 2602.000000 2602.000000"
 preserveAspectRatio="xMidYMid meet">
<metadata>
Created by potrace 1.14, written by Peter Selinger 2001-2017
</metadata>
<g transform="translate(0.000000,2602.000000) scale(0.100000,-0.100000)"
fill="#000000" stroke="none">
<path d="M12727 26014 c-1 -1 -85 -5 -187 -8 -102 -3 -216 -8 -255 -11 -117
-7 -258 -16 -305 -20 -25 -2 -82 -6 -127 -10 -44 -3 -89 -7 -100 -9 -10 -2
-49 -7 -88 -10 -38 -4 -86 -9 -105 -11 -19 -2 -60 -7 -90 -10 -30 -3 -66 -7
-80 -10 -14 -2 -49 -7 -79 -10 -30 -4 -63 -9 -75 -11 -12 -2 -40 -6 -63 -9
-41 -5 -92 -12 -143 -20 -14 -3 -43 -7 -65 -10 -34 -6 -122 -21 -345 -60 -186
-32 -568 -117 -815 -181 -115 -30 -217 -56 -225 -58 -245 -61 -1004 -309
-1195 -391 -16 -7 -68 -27 -115 -45 -47 -18 -98 -39 -115 -46 -16 -7 -95 -39
-175 -72 -173 -71 -227 -96 -520 -233 -141 -66 -469 -230 -555 -279 -27 -15
-81 -44 -120 -65 -675 -364 -1468 -903 -2065 -1403 -149 -125 -256 -216 -265
-226 -5 -6 -28 -26 -50 -45 -135 -115 -353 -321 -579 -546 -269 -269 -413
-424 -688 -739 -438 -505 -983 -1263 -1308 -1821 -9 -16 -49 -84 -87 -150
-255 -438 -497 -924 -708 -1420 -21 -49 -48 -114 -61 -143 -13 -29 -24 -54
-24 -57 0 -2 -5 -16 -12 -32 -6 -15 -12 -30 -13 -33 0 -3 -26 -70 -57 -150
-101 -258 -225 -618 -294 -850 -86 -290 -174 -612 -209 -770 -2 -8 -16 -64
-30 -125 -30 -129 -42 -182 -55 -250 -5 -27 -12 -61 -15 -75 -6 -25 -32 -163
-40 -210 -5 -29 -13 -74 -20 -110 -9 -45 -25 -142 -40 -245 -4 -22 -12 -78
-20 -125 -8 -47 -17 -107 -20 -135 -3 -27 -8 -68 -10 -90 -11 -82 -15 -112
-26 -205 -10 -95 -12 -112 -24 -245 -3 -38 -8 -86 -10 -105 -2 -19 -7 -78 -10
-130 -3 -52 -8 -115 -10 -140 -33 -367 -33 -1127 0 -1680 8 -130 22 -300 30
-370 2 -19 7 -71 10 -115 3 -44 8 -87 10 -95 2 -8 6 -44 9 -80 3 -36 8 -74 10
-85 2 -11 7 -45 10 -75 4 -30 8 -66 11 -80 2 -14 6 -46 9 -72 6 -48 18 -130
42 -268 3 -19 8 -51 11 -70 6 -48 9 -63 27 -160 21 -111 24 -131 42 -220 8
-41 17 -86 20 -100 2 -14 11 -54 19 -90 8 -36 24 -108 35 -160 23 -101 31
-139 36 -155 6 -20 15 -61 20 -85 2 -14 7 -32 10 -40 4 -8 17 -58 29 -110 13
-52 40 -151 59 -220 20 -69 43 -150 52 -180 63 -231 319 -974 383 -1115 5 -11
50 -117 99 -235 50 -118 105 -249 124 -290 19 -41 50 -109 69 -150 45 -99 277
-565 329 -660 23 -41 57 -104 77 -140 20 -36 49 -90 66 -120 17 -30 38 -67 49
-82 10 -14 18 -28 18 -31 0 -7 155 -265 260 -432 389 -621 893 -1281 1404
-1839 321 -351 767 -787 1051 -1027 22 -19 47 -41 55 -49 13 -13 84 -74 155
-131 11 -10 49 -41 85 -71 225 -188 576 -453 860 -651 55 -38 428 -285 475
-314 47 -30 221 -136 257 -158 54 -32 433 -249 488 -279 96 -52 644 -327 725
-363 39 -17 104 -47 145 -66 41 -19 147 -64 235 -101 88 -37 174 -73 190 -81
126 -57 867 -325 944 -340 9 -2 43 -12 76 -24 48 -16 278 -85 320 -95 6 -1 35
-10 65 -18 56 -17 323 -88 350 -93 8 -2 53 -12 100 -23 170 -41 262 -62 293
-67 18 -3 48 -10 67 -15 19 -5 49 -11 65 -14 27 -4 103 -19 165 -31 20 -4 141
-25 340 -60 14 -2 44 -7 68 -10 24 -3 53 -7 65 -10 12 -3 38 -7 57 -9 19 -3
51 -7 70 -10 97 -15 194 -28 232 -32 24 -2 59 -6 78 -8 33 -5 70 -9 188 -21
26 -3 68 -7 94 -10 26 -3 78 -7 115 -10 38 -3 95 -7 128 -10 78 -7 170 -13
325 -20 69 -4 163 -8 210 -11 95 -5 852 -4 945 0 33 2 123 7 200 11 77 3 156
8 175 10 19 2 85 6 145 10 61 4 117 8 125 10 8 2 56 6 105 10 50 4 99 9 110
11 11 2 54 6 95 9 41 3 82 8 90 10 8 2 40 7 70 10 30 3 66 8 80 10 14 2 63 9
110 15 47 5 94 12 105 14 11 2 43 7 70 10 41 6 175 28 370 62 17 3 62 11 100
19 39 8 86 17 105 20 61 10 482 104 585 131 55 14 109 27 120 30 49 9 419 113
505 141 25 8 52 16 61 18 26 5 519 170 624 209 122 45 595 231 650 256 22 10
101 45 175 78 348 153 868 414 1085 543 16 10 44 25 60 34 95 51 434 255 605
365 250 161 624 422 830 579 47 36 103 79 125 95 22 17 42 33 45 36 3 3 70 57
150 121 225 181 479 401 709 614 202 187 649 644 827 846 27 30 77 86 111 125
66 75 309 365 358 428 17 22 48 62 71 90 22 28 67 87 100 131 32 44 62 82 65
85 31 24 492 691 608 880 126 204 170 277 235 389 375 643 691 1311 958 2026
88 237 270 786 293 885 1 8 17 62 33 120 32 109 121 456 128 500 3 14 7 31 10
39 4 14 41 171 50 216 2 11 15 74 28 140 21 99 59 302 80 428 3 15 10 55 16
88 6 33 13 75 15 92 2 18 8 66 15 107 23 154 23 158 34 260 3 30 8 64 10 75 8
44 39 351 51 510 2 28 6 85 10 128 19 227 28 523 28 912 1 332 -5 558 -18 755
-2 30 -6 105 -10 167 -3 62 -7 120 -9 130 -2 10 -7 59 -10 109 -4 50 -9 102
-11 115 -2 13 -6 58 -10 99 -4 41 -9 84 -11 95 -2 11 -6 47 -9 80 -3 33 -7 69
-9 80 -2 11 -7 47 -10 80 -4 33 -9 71 -11 85 -2 14 -7 45 -10 70 -3 25 -8 52
-10 60 -2 8 -6 38 -10 65 -3 28 -15 102 -26 165 -11 63 -22 129 -24 145 -12
83 -97 495 -131 635 -9 36 -18 76 -21 90 -8 50 -104 409 -154 580 -28 96 -54
189 -59 205 -51 183 -276 822 -345 980 -7 17 -25 62 -40 100 -15 39 -33 84
-40 100 -8 17 -33 75 -56 130 -42 101 -65 153 -124 280 -18 39 -49 106 -70
150 -47 101 -214 436 -259 518 -18 34 -49 91 -68 127 -86 159 -266 470 -358
619 -22 34 -40 67 -40 71 0 5 -3 10 -8 12 -4 2 -39 53 -77 113 -207 328 -591
862 -820 1140 -134 162 -303 365 -331 395 -17 19 -55 62 -84 95 -187 212 -657
692 -875 895 -81 75 -237 216 -279 251 -16 13 -34 29 -40 34 -14 14 -278 237
-291 247 -26 20 -153 122 -173 140 -53 44 -437 331 -562 420 -271 191 -792
527 -930 600 -19 10 -55 31 -80 47 -25 15 -70 41 -100 58 -30 16 -91 50 -135
75 -94 53 -321 171 -490 256 -518 258 -1082 491 -1640 677 -198 66 -444 144
-470 149 -12 3 -108 30 -180 51 -27 9 -59 17 -70 19 -11 3 -64 16 -118 31 -54
15 -107 28 -118 31 -10 2 -29 7 -41 10 -31 8 -79 19 -163 39 -38 9 -77 18 -85
20 -24 6 -303 65 -330 70 -14 3 -36 7 -50 10 -14 3 -74 14 -135 25 -60 11
-121 22 -135 25 -41 7 -332 53 -375 59 -22 3 -60 8 -84 11 -23 3 -55 7 -70 9
-14 3 -48 7 -76 11 -27 3 -66 7 -85 10 -19 2 -55 6 -80 9 -25 3 -70 8 -100 11
-72 8 -117 12 -215 20 -44 4 -96 8 -115 10 -31 4 -77 7 -300 20 -230 14 -1003
28 -1013 19z"/>
</g>
</svg>
